# xmcd CD database file
#
# Track frame offsets:
#	150
#	16824
#	33446
#	49082
#	63206
#	81343
#	96523
#	111386
#	126214
#	146075
#	162524
#	182360
#	200462
#	216739
#	232749
#	248040
#	263735
#
# Disc length: 3714 seconds
#
# Revision: 0
# Processed by: cddbd v1.5.2PL0 Copyright (c) Steve Scherf et al.
# Submitted via: jetAudio 7
#
DISCID=f20e8011
DTITLE=Juanita du Plessis - Jou Skaduwee
DYEAR=2006
DGENRE=Vocal
TTITLE0=Jou Skaduwee
TTITLE1=Boerejol
TTITLE2=Bring Jou Hart (met Theuns Jordaan)
TTITLE3=Nou wat Nou
TTITLE4=Ek is Jammer
TTITLE5=Duisend Soene
TTITLE6=As Jy net kom weet
TTITLE7=Verlief en Verlore
TTITLE8=I'll be Yours
TTITLE9=Glo My
TTITLE10=Blouberg se Strand
TTITLE11=Miskien
TTITLE12=Mano
TTITLE13=Why me Lord
TTITLE14=Boerejol (remix)
TTITLE15=Bring jou Hart
TTITLE16=Styf Vas (met Die Campbells
EXTD=YEAR: 2006
EXTT0=
EXTT1=
EXTT2=
EXTT3=
EXTT4=
EXTT5=
EXTT6=
EXTT7=
EXTT8=
EXTT9=
EXTT10=
EXTT11=
EXTT12=
EXTT13=
EXTT14=
EXTT15=
EXTT16=
PLAYORDER=
